<svg width="168" height="168" viewBox="0 0 168 168" fill="none" xmlns="http://www.w3.org/2000/svg">
<g opacity="0.3">
<path d="M162.001 39.0713C162.466 39.8771 162.919 40.6909 163.36 41.5122C162.56 40.9887 162.025 40.0932 162.001 39.0713Z" fill="#9F9F9F"/>
<path d="M145.574 18.3597C146.972 19.6715 148.328 21.0276 149.64 22.4256C149.133 23.3631 148.141 23.9999 147 23.9999C145.343 23.9999 144 22.6568 144 20.9999C144 19.8591 144.637 18.867 145.574 18.3597Z" fill="#9F9F9F"/>
<path d="M126.488 4.64024C127.309 5.0809 128.123 5.53394 128.929 5.9991C127.907 5.97525 127.011 5.44043 126.488 4.64024Z" fill="#9F9F9F"/>
<path d="M39.0714 5.9991C39.8772 5.53394 40.6909 5.0809 41.5123 4.64024C40.9887 5.44043 40.0932 5.97525 39.0714 5.9991Z" fill="#9F9F9F"/>
<path d="M18.3597 22.4256C19.6716 21.0276 21.0276 19.6715 22.4256 18.3597C23.3632 18.867 24 19.8591 24 20.9999C24 22.6568 22.6569 23.9999 21 23.9999C19.8591 23.9999 18.867 23.3631 18.3597 22.4256Z" fill="#9F9F9F"/>
<path d="M4.6403 41.5122C5.08096 40.6909 5.534 39.8771 5.99916 39.0713C5.97531 40.0932 5.44049 40.9887 4.6403 41.5122Z" fill="#9F9F9F"/>
<path d="M163.36 126.488C162.919 127.309 162.466 128.123 162.001 128.929C162.025 127.907 162.56 127.011 163.36 126.488Z" fill="#9F9F9F"/>
<path d="M149.64 145.574C149.133 144.637 148.141 144 147 144C145.343 144 144 145.343 144 147C144 148.141 144.637 149.133 145.574 149.64C146.972 148.328 148.328 146.972 149.64 145.574Z" fill="#9F9F9F"/>
<path d="M128.929 162.001C127.907 162.025 127.011 162.559 126.488 163.36C127.309 162.919 128.123 162.466 128.929 162.001Z" fill="#9F9F9F"/>
<path d="M41.5123 163.36C40.9887 162.559 40.0932 162.025 39.0714 162.001C39.8772 162.466 40.6909 162.919 41.5123 163.36Z" fill="#9F9F9F"/>
<path d="M22.4256 149.64C23.3632 149.133 24 148.141 24 147C24 145.343 22.6569 144 21 144C19.8591 144 18.867 144.637 18.3597 145.574C19.6716 146.972 21.0276 148.328 22.4256 149.64Z" fill="#9F9F9F"/>
<path d="M5.99916 128.929C5.97531 127.907 5.44049 127.011 4.6403 126.488C5.08096 127.309 5.534 128.123 5.99916 128.929Z" fill="#9F9F9F"/>
<path d="M60 2.99994C60 4.65679 58.6569 5.99994 57 5.99994C55.3431 5.99994 54 4.65679 54 2.99994C54 1.34308 55.3431 -6.10352e-05 57 -6.10352e-05C58.6569 -6.10352e-05 60 1.34308 60 2.99994Z" fill="#9F9F9F"/>
<path d="M78 2.99994C78 4.65679 76.6569 5.99994 75 5.99994C73.3431 5.99994 72 4.65679 72 2.99994C72 1.34308 73.3431 -6.10352e-05 75 -6.10352e-05C76.6569 -6.10352e-05 78 1.34308 78 2.99994Z" fill="#9F9F9F"/>
<path d="M96 2.99994C96 4.65679 94.6569 5.99994 93 5.99994C91.3431 5.99994 90 4.65679 90 2.99994C90 1.34308 91.3431 -6.10352e-05 93 -6.10352e-05C94.6569 -6.10352e-05 96 1.34308 96 2.99994Z" fill="#9F9F9F"/>
<path d="M114 2.99994C114 4.65679 112.657 5.99994 111 5.99994C109.343 5.99994 108 4.65679 108 2.99994C108 1.34308 109.343 -6.10352e-05 111 -6.10352e-05C112.657 -6.10352e-05 114 1.34308 114 2.99994Z" fill="#9F9F9F"/>
<path d="M42 20.9999C42 22.6568 40.6569 23.9999 39 23.9999C37.3431 23.9999 36 22.6568 36 20.9999C36 19.3431 37.3431 17.9999 39 17.9999C40.6569 17.9999 42 19.3431 42 20.9999Z" fill="#9F9F9F"/>
<path d="M60 20.9999C60 22.6568 58.6569 23.9999 57 23.9999C55.3431 23.9999 54 22.6568 54 20.9999C54 19.3431 55.3431 17.9999 57 17.9999C58.6569 17.9999 60 19.3431 60 20.9999Z" fill="#9F9F9F"/>
<path d="M78 20.9999C78 22.6568 76.6569 23.9999 75 23.9999C73.3431 23.9999 72 22.6568 72 20.9999C72 19.3431 73.3431 17.9999 75 17.9999C76.6569 17.9999 78 19.3431 78 20.9999Z" fill="#9F9F9F"/>
<path d="M96 20.9999C96 22.6568 94.6569 23.9999 93 23.9999C91.3431 23.9999 90 22.6568 90 20.9999C90 19.3431 91.3431 17.9999 93 17.9999C94.6569 17.9999 96 19.3431 96 20.9999Z" fill="#9F9F9F"/>
<path d="M114 20.9999C114 22.6568 112.657 23.9999 111 23.9999C109.343 23.9999 108 22.6568 108 20.9999C108 19.3431 109.343 17.9999 111 17.9999C112.657 17.9999 114 19.3431 114 20.9999Z" fill="#9F9F9F"/>
<path d="M132 20.9999C132 22.6568 130.657 23.9999 129 23.9999C127.343 23.9999 126 22.6568 126 20.9999C126 19.3431 127.343 17.9999 129 17.9999C130.657 17.9999 132 19.3431 132 20.9999Z" fill="#9F9F9F"/>
<path d="M24 38.9999C24 40.6568 22.6569 41.9999 21 41.9999C19.3431 41.9999 18 40.6568 18 38.9999C18 37.3431 19.3431 35.9999 21 35.9999C22.6569 35.9999 24 37.3431 24 38.9999Z" fill="#9F9F9F"/>
<path d="M42 38.9999C42 40.6568 40.6569 41.9999 39 41.9999C37.3431 41.9999 36 40.6568 36 38.9999C36 37.3431 37.3431 35.9999 39 35.9999C40.6569 35.9999 42 37.3431 42 38.9999Z" fill="#9F9F9F"/>
<path d="M60 38.9999C60 40.6568 58.6569 41.9999 57 41.9999C55.3431 41.9999 54 40.6568 54 38.9999C54 37.3431 55.3431 35.9999 57 35.9999C58.6569 35.9999 60 37.3431 60 38.9999Z" fill="#9F9F9F"/>
<path d="M78 38.9999C78 40.6568 76.6569 41.9999 75 41.9999C73.3431 41.9999 72 40.6568 72 38.9999C72 37.3431 73.3431 35.9999 75 35.9999C76.6569 35.9999 78 37.3431 78 38.9999Z" fill="#9F9F9F"/>
<path d="M96 38.9999C96 40.6568 94.6569 41.9999 93 41.9999C91.3431 41.9999 90 40.6568 90 38.9999C90 37.3431 91.3431 35.9999 93 35.9999C94.6569 35.9999 96 37.3431 96 38.9999Z" fill="#9F9F9F"/>
<path d="M114 38.9999C114 40.6568 112.657 41.9999 111 41.9999C109.343 41.9999 108 40.6568 108 38.9999C108 37.3431 109.343 35.9999 111 35.9999C112.657 35.9999 114 37.3431 114 38.9999Z" fill="#9F9F9F"/>
<path d="M132 38.9999C132 40.6568 130.657 41.9999 129 41.9999C127.343 41.9999 126 40.6568 126 38.9999C126 37.3431 127.343 35.9999 129 35.9999C130.657 35.9999 132 37.3431 132 38.9999Z" fill="#9F9F9F"/>
<path d="M150 38.9999C150 40.6568 148.657 41.9999 147 41.9999C145.343 41.9999 144 40.6568 144 38.9999C144 37.3431 145.343 35.9999 147 35.9999C148.657 35.9999 150 37.3431 150 38.9999Z" fill="#9F9F9F"/>
<path d="M6 56.9999C6 58.6568 4.65685 59.9999 3 59.9999C1.34315 59.9999 0 58.6568 0 56.9999C0 55.3431 1.34315 53.9999 3 53.9999C4.65685 53.9999 6 55.3431 6 56.9999Z" fill="#9F9F9F"/>
<path d="M24 56.9999C24 58.6568 22.6569 59.9999 21 59.9999C19.3431 59.9999 18 58.6568 18 56.9999C18 55.3431 19.3431 53.9999 21 53.9999C22.6569 53.9999 24 55.3431 24 56.9999Z" fill="#9F9F9F"/>
<path d="M42 56.9999C42 58.6568 40.6569 59.9999 39 59.9999C37.3431 59.9999 36 58.6568 36 56.9999C36 55.3431 37.3431 53.9999 39 53.9999C40.6569 53.9999 42 55.3431 42 56.9999Z" fill="#9F9F9F"/>
<path d="M60 56.9999C60 58.6568 58.6569 59.9999 57 59.9999C55.3431 59.9999 54 58.6568 54 56.9999C54 55.3431 55.3431 53.9999 57 53.9999C58.6569 53.9999 60 55.3431 60 56.9999Z" fill="#9F9F9F"/>
<path d="M78 56.9999C78 58.6568 76.6569 59.9999 75 59.9999C73.3431 59.9999 72 58.6568 72 56.9999C72 55.3431 73.3431 53.9999 75 53.9999C76.6569 53.9999 78 55.3431 78 56.9999Z" fill="#9F9F9F"/>
<path d="M96 56.9999C96 58.6568 94.6569 59.9999 93 59.9999C91.3431 59.9999 90 58.6568 90 56.9999C90 55.3431 91.3431 53.9999 93 53.9999C94.6569 53.9999 96 55.3431 96 56.9999Z" fill="#9F9F9F"/>
<path d="M114 56.9999C114 58.6568 112.657 59.9999 111 59.9999C109.343 59.9999 108 58.6568 108 56.9999C108 55.3431 109.343 53.9999 111 53.9999C112.657 53.9999 114 55.3431 114 56.9999Z" fill="#9F9F9F"/>
<path d="M132 56.9999C132 58.6568 130.657 59.9999 129 59.9999C127.343 59.9999 126 58.6568 126 56.9999C126 55.3431 127.343 53.9999 129 53.9999C130.657 53.9999 132 55.3431 132 56.9999Z" fill="#9F9F9F"/>
<path d="M150 56.9999C150 58.6568 148.657 59.9999 147 59.9999C145.343 59.9999 144 58.6568 144 56.9999C144 55.3431 145.343 53.9999 147 53.9999C148.657 53.9999 150 55.3431 150 56.9999Z" fill="#9F9F9F"/>
<path d="M168 56.9999C168 58.6568 166.657 59.9999 165 59.9999C163.343 59.9999 162 58.6568 162 56.9999C162 55.3431 163.343 53.9999 165 53.9999C166.657 53.9999 168 55.3431 168 56.9999Z" fill="#9F9F9F"/>
<path d="M6 74.9999C6 76.6568 4.65685 77.9999 3 77.9999C1.34315 77.9999 0 76.6568 0 74.9999C0 73.3431 1.34315 71.9999 3 71.9999C4.65685 71.9999 6 73.3431 6 74.9999Z" fill="#9F9F9F"/>
<path d="M24 74.9999C24 76.6568 22.6569 77.9999 21 77.9999C19.3431 77.9999 18 76.6568 18 74.9999C18 73.3431 19.3431 71.9999 21 71.9999C22.6569 71.9999 24 73.3431 24 74.9999Z" fill="#9F9F9F"/>
<path d="M42 74.9999C42 76.6568 40.6569 77.9999 39 77.9999C37.3431 77.9999 36 76.6568 36 74.9999C36 73.3431 37.3431 71.9999 39 71.9999C40.6569 71.9999 42 73.3431 42 74.9999Z" fill="#9F9F9F"/>
<path d="M60 74.9999C60 76.6568 58.6569 77.9999 57 77.9999C55.3431 77.9999 54 76.6568 54 74.9999C54 73.3431 55.3431 71.9999 57 71.9999C58.6569 71.9999 60 73.3431 60 74.9999Z" fill="#9F9F9F"/>
<path d="M78 74.9999C78 76.6568 76.6569 77.9999 75 77.9999C73.3431 77.9999 72 76.6568 72 74.9999C72 73.3431 73.3431 71.9999 75 71.9999C76.6569 71.9999 78 73.3431 78 74.9999Z" fill="#9F9F9F"/>
<path d="M96 74.9999C96 76.6568 94.6569 77.9999 93 77.9999C91.3431 77.9999 90 76.6568 90 74.9999C90 73.3431 91.3431 71.9999 93 71.9999C94.6569 71.9999 96 73.3431 96 74.9999Z" fill="#9F9F9F"/>
<path d="M114 74.9999C114 76.6568 112.657 77.9999 111 77.9999C109.343 77.9999 108 76.6568 108 74.9999C108 73.3431 109.343 71.9999 111 71.9999C112.657 71.9999 114 73.3431 114 74.9999Z" fill="#9F9F9F"/>
<path d="M132 74.9999C132 76.6568 130.657 77.9999 129 77.9999C127.343 77.9999 126 76.6568 126 74.9999C126 73.3431 127.343 71.9999 129 71.9999C130.657 71.9999 132 73.3431 132 74.9999Z" fill="#9F9F9F"/>
<path d="M150 74.9999C150 76.6568 148.657 77.9999 147 77.9999C145.343 77.9999 144 76.6568 144 74.9999C144 73.3431 145.343 71.9999 147 71.9999C148.657 71.9999 150 73.3431 150 74.9999Z" fill="#9F9F9F"/>
<path d="M168 74.9999C168 76.6568 166.657 77.9999 165 77.9999C163.343 77.9999 162 76.6568 162 74.9999C162 73.3431 163.343 71.9999 165 71.9999C166.657 71.9999 168 73.3431 168 74.9999Z" fill="#9F9F9F"/>
<path d="M6 92.9999C6 94.6568 4.65685 95.9999 3 95.9999C1.34315 95.9999 0 94.6568 0 92.9999C0 91.3431 1.34315 89.9999 3 89.9999C4.65685 89.9999 6 91.3431 6 92.9999Z" fill="#9F9F9F"/>
<path d="M24 92.9999C24 94.6568 22.6569 95.9999 21 95.9999C19.3431 95.9999 18 94.6568 18 92.9999C18 91.3431 19.3431 89.9999 21 89.9999C22.6569 89.9999 24 91.3431 24 92.9999Z" fill="#9F9F9F"/>
<path d="M42 92.9999C42 94.6568 40.6569 95.9999 39 95.9999C37.3431 95.9999 36 94.6568 36 92.9999C36 91.3431 37.3431 89.9999 39 89.9999C40.6569 89.9999 42 91.3431 42 92.9999Z" fill="#9F9F9F"/>
<path d="M60 92.9999C60 94.6568 58.6569 95.9999 57 95.9999C55.3431 95.9999 54 94.6568 54 92.9999C54 91.3431 55.3431 89.9999 57 89.9999C58.6569 89.9999 60 91.3431 60 92.9999Z" fill="#9F9F9F"/>
<path d="M78 92.9999C78 94.6568 76.6569 95.9999 75 95.9999C73.3431 95.9999 72 94.6568 72 92.9999C72 91.3431 73.3431 89.9999 75 89.9999C76.6569 89.9999 78 91.3431 78 92.9999Z" fill="#9F9F9F"/>
<path d="M96 92.9999C96 94.6568 94.6569 95.9999 93 95.9999C91.3431 95.9999 90 94.6568 90 92.9999C90 91.3431 91.3431 89.9999 93 89.9999C94.6569 89.9999 96 91.3431 96 92.9999Z" fill="#9F9F9F"/>
<path d="M114 92.9999C114 94.6568 112.657 95.9999 111 95.9999C109.343 95.9999 108 94.6568 108 92.9999C108 91.3431 109.343 89.9999 111 89.9999C112.657 89.9999 114 91.3431 114 92.9999Z" fill="#9F9F9F"/>
<path d="M132 92.9999C132 94.6568 130.657 95.9999 129 95.9999C127.343 95.9999 126 94.6568 126 92.9999C126 91.3431 127.343 89.9999 129 89.9999C130.657 89.9999 132 91.3431 132 92.9999Z" fill="#9F9F9F"/>
<path d="M150 92.9999C150 94.6568 148.657 95.9999 147 95.9999C145.343 95.9999 144 94.6568 144 92.9999C144 91.3431 145.343 89.9999 147 89.9999C148.657 89.9999 150 91.3431 150 92.9999Z" fill="#9F9F9F"/>
<path d="M168 92.9999C168 94.6568 166.657 95.9999 165 95.9999C163.343 95.9999 162 94.6568 162 92.9999C162 91.3431 163.343 89.9999 165 89.9999C166.657 89.9999 168 91.3431 168 92.9999Z" fill="#9F9F9F"/>
<path d="M6 111C6 112.657 4.65685 114 3 114C1.34315 114 0 112.657 0 111C0 109.343 1.34315 108 3 108C4.65685 108 6 109.343 6 111Z" fill="#9F9F9F"/>
<path d="M24 111C24 112.657 22.6569 114 21 114C19.3431 114 18 112.657 18 111C18 109.343 19.3431 108 21 108C22.6569 108 24 109.343 24 111Z" fill="#9F9F9F"/>
<path d="M42 111C42 112.657 40.6569 114 39 114C37.3431 114 36 112.657 36 111C36 109.343 37.3431 108 39 108C40.6569 108 42 109.343 42 111Z" fill="#9F9F9F"/>
<path d="M60 111C60 112.657 58.6569 114 57 114C55.3431 114 54 112.657 54 111C54 109.343 55.3431 108 57 108C58.6569 108 60 109.343 60 111Z" fill="#9F9F9F"/>
<path d="M78 111C78 112.657 76.6569 114 75 114C73.3431 114 72 112.657 72 111C72 109.343 73.3431 108 75 108C76.6569 108 78 109.343 78 111Z" fill="#9F9F9F"/>
<path d="M96 111C96 112.657 94.6569 114 93 114C91.3431 114 90 112.657 90 111C90 109.343 91.3431 108 93 108C94.6569 108 96 109.343 96 111Z" fill="#9F9F9F"/>
<path d="M114 111C114 112.657 112.657 114 111 114C109.343 114 108 112.657 108 111C108 109.343 109.343 108 111 108C112.657 108 114 109.343 114 111Z" fill="#9F9F9F"/>
<path d="M132 111C132 112.657 130.657 114 129 114C127.343 114 126 112.657 126 111C126 109.343 127.343 108 129 108C130.657 108 132 109.343 132 111Z" fill="#9F9F9F"/>
<path d="M150 111C150 112.657 148.657 114 147 114C145.343 114 144 112.657 144 111C144 109.343 145.343 108 147 108C148.657 108 150 109.343 150 111Z" fill="#9F9F9F"/>
<path d="M168 111C168 112.657 166.657 114 165 114C163.343 114 162 112.657 162 111C162 109.343 163.343 108 165 108C166.657 108 168 109.343 168 111Z" fill="#9F9F9F"/>
<path d="M24 129C24 130.657 22.6569 132 21 132C19.3431 132 18 130.657 18 129C18 127.343 19.3431 126 21 126C22.6569 126 24 127.343 24 129Z" fill="#9F9F9F"/>
<path d="M42 129C42 130.657 40.6569 132 39 132C37.3431 132 36 130.657 36 129C36 127.343 37.3431 126 39 126C40.6569 126 42 127.343 42 129Z" fill="#9F9F9F"/>
<path d="M60 129C60 130.657 58.6569 132 57 132C55.3431 132 54 130.657 54 129C54 127.343 55.3431 126 57 126C58.6569 126 60 127.343 60 129Z" fill="#9F9F9F"/>
<path d="M78 129C78 130.657 76.6569 132 75 132C73.3431 132 72 130.657 72 129C72 127.343 73.3431 126 75 126C76.6569 126 78 127.343 78 129Z" fill="#9F9F9F"/>
<path d="M96 129C96 130.657 94.6569 132 93 132C91.3431 132 90 130.657 90 129C90 127.343 91.3431 126 93 126C94.6569 126 96 127.343 96 129Z" fill="#9F9F9F"/>
<path d="M114 129C114 130.657 112.657 132 111 132C109.343 132 108 130.657 108 129C108 127.343 109.343 126 111 126C112.657 126 114 127.343 114 129Z" fill="#9F9F9F"/>
<path d="M132 129C132 130.657 130.657 132 129 132C127.343 132 126 130.657 126 129C126 127.343 127.343 126 129 126C130.657 126 132 127.343 132 129Z" fill="#9F9F9F"/>
<path d="M150 129C150 130.657 148.657 132 147 132C145.343 132 144 130.657 144 129C144 127.343 145.343 126 147 126C148.657 126 150 127.343 150 129Z" fill="#9F9F9F"/>
<path d="M42 147C42 148.657 40.6569 150 39 150C37.3431 150 36 148.657 36 147C36 145.343 37.3431 144 39 144C40.6569 144 42 145.343 42 147Z" fill="#9F9F9F"/>
<path d="M60 147C60 148.657 58.6569 150 57 150C55.3431 150 54 148.657 54 147C54 145.343 55.3431 144 57 144C58.6569 144 60 145.343 60 147Z" fill="#9F9F9F"/>
<path d="M78 147C78 148.657 76.6569 150 75 150C73.3431 150 72 148.657 72 147C72 145.343 73.3431 144 75 144C76.6569 144 78 145.343 78 147Z" fill="#9F9F9F"/>
<path d="M96 147C96 148.657 94.6569 150 93 150C91.3431 150 90 148.657 90 147C90 145.343 91.3431 144 93 144C94.6569 144 96 145.343 96 147Z" fill="#9F9F9F"/>
<path d="M114 147C114 148.657 112.657 150 111 150C109.343 150 108 148.657 108 147C108 145.343 109.343 144 111 144C112.657 144 114 145.343 114 147Z" fill="#9F9F9F"/>
<path d="M132 147C132 148.657 130.657 150 129 150C127.343 150 126 148.657 126 147C126 145.343 127.343 144 129 144C130.657 144 132 145.343 132 147Z" fill="#9F9F9F"/>
<path d="M60 165C60 166.657 58.6569 168 57 168C55.3431 168 54 166.657 54 165C54 163.343 55.3431 162 57 162C58.6569 162 60 163.343 60 165Z" fill="#9F9F9F"/>
<path d="M78 165C78 166.657 76.6569 168 75 168C73.3431 168 72 166.657 72 165C72 163.343 73.3431 162 75 162C76.6569 162 78 163.343 78 165Z" fill="#9F9F9F"/>
<path d="M96 165C96 166.657 94.6569 168 93 168C91.3431 168 90 166.657 90 165C90 163.343 91.3431 162 93 162C94.6569 162 96 163.343 96 165Z" fill="#9F9F9F"/>
<path d="M114 165C114 166.657 112.657 168 111 168C109.343 168 108 166.657 108 165C108 163.343 109.343 162 111 162C112.657 162 114 163.343 114 165Z" fill="#9F9F9F"/>
</g>
<g filter="url(#filter0_d_2_262)">
<circle cx="83.7672" cy="83.7675" r="53.3629" fill="white"/>
</g>
<path d="M105.571 85.2857V81.5C105.571 80.496 105.18 79.5331 104.484 78.8231C103.787 78.1131 102.842 77.7143 101.857 77.7143H64.7143C63.7292 77.7143 62.7845 78.1131 62.0879 78.8231C61.3913 79.5331 61 80.496 61 81.5V104.214C61 105.218 61.3913 106.181 62.0879 106.891C62.7845 107.601 63.7292 108 64.7143 108H101.857C102.842 108 103.787 107.601 104.484 106.891C105.18 106.181 105.571 105.218 105.571 104.214V100.429M105.571 85.2857V100.429M105.571 85.2857H90.7143C88.7441 85.2857 86.8546 86.0834 85.4615 87.5033C84.0684 88.9233 83.2857 90.8491 83.2857 92.8571C83.2857 94.8652 84.0684 96.791 85.4615 98.211C86.8546 99.6309 88.7441 100.429 90.7143 100.429H105.571M105.571 85.2857C107.542 85.2857 109.431 86.0834 110.824 87.5033C112.217 88.9233 113 90.8491 113 92.8571C113 94.8652 112.217 96.791 110.824 98.211C109.431 99.6309 107.542 100.429 105.571 100.429M103.714 92.8571H107.429M96.2857 92.8571H100M88.8571 92.8571H92.5714M72.1429 77.7143V66.3571C72.1429 63.345 73.3168 60.4563 75.4065 58.3264C77.4962 56.1966 80.3304 55 83.2857 55C86.241 55 89.0752 56.1966 91.1649 58.3264C93.2546 60.4563 94.4286 63.345 94.4286 66.3571V77.7143H72.1429Z" stroke="#39B273" stroke-width="2.4"/>
<defs>
<filter id="filter0_d_2_262" x="16.4043" y="24.4046" width="134.726" height="134.726" filterUnits="userSpaceOnUse" color-interpolation-filters="sRGB">
<feFlood flood-opacity="0" result="BackgroundImageFix"/>
<feColorMatrix in="SourceAlpha" type="matrix" values="0 0 0 0 0 0 0 0 0 0 0 0 0 0 0 0 0 0 127 0" result="hardAlpha"/>
<feOffset dy="8"/>
<feGaussianBlur stdDeviation="7"/>
<feComposite in2="hardAlpha" operator="out"/>
<feColorMatrix type="matrix" values="0 0 0 0 0 0 0 0 0 0 0 0 0 0 0 0 0 0 0.08 0"/>
<feBlend mode="normal" in2="BackgroundImageFix" result="effect1_dropShadow_2_262"/>
<feBlend mode="normal" in="SourceGraphic" in2="effect1_dropShadow_2_262" result="shape"/>
</filter>
</defs>
</svg>
