<svg width="19" height="19" viewBox="0 0 19 19" fill="none" xmlns="http://www.w3.org/2000/svg">
<g clip-path="url(#clip0_20_339)">
<path d="M9.38031 18.8369C7.60028 18.8369 5.86022 18.3091 4.38018 17.3201C2.90014 16.3312 1.74659 14.9256 1.0654 13.2811C0.38421 11.6365 0.20598 9.82693 0.553247 8.08111C0.900514 6.33528 1.75768 4.73163 3.01635 3.47296C4.27503 2.21428 5.87867 1.35712 7.6245 1.00985C9.37033 0.662584 11.1799 0.840814 12.8245 1.522C14.469 2.20319 15.8746 3.35674 16.8635 4.83679C17.8525 6.31683 18.3803 8.05689 18.3803 9.83692C18.3777 12.2231 17.4287 14.5108 15.7414 16.198C14.0542 17.8853 11.7665 18.8343 9.38031 18.8369ZM9.38031 2.33692C7.89695 2.33692 6.44691 2.77679 5.21354 3.6009C3.98017 4.42501 3.01887 5.59635 2.45122 6.96679C1.88356 8.33724 1.73504 9.84524 2.02442 11.3001C2.31381 12.755 3.02812 14.0913 4.07701 15.1402C5.12591 16.1891 6.46228 16.9034 7.91714 17.1928C9.37199 17.4822 10.88 17.3337 12.2504 16.766C13.6209 16.1984 14.7922 15.2371 15.6163 14.0037C16.4404 12.7703 16.8803 11.3203 16.8803 9.83692C16.8781 7.84846 16.0873 5.94208 14.6812 4.53603C13.2752 3.12998 11.3688 2.3391 9.38031 2.33692ZM6.38031 11.3369C6.26327 11.3364 6.14772 11.3633 6.04292 11.4154C5.93813 11.4675 5.84698 11.5435 5.77679 11.6371C5.7066 11.7308 5.6593 11.8396 5.63868 11.9548C5.61807 12.07 5.6247 12.1885 5.65806 12.3007C5.92678 13.0863 6.42633 13.7725 7.09138 14.2696C7.75643 14.7667 8.55601 15.0516 9.38556 15.0869C10.2155 15.0542 11.0159 14.7703 11.6809 14.2728C12.346 13.7753 12.8443 13.0876 13.1101 12.3007C13.1401 12.1886 13.1443 12.0712 13.1223 11.9574C13.1003 11.8435 13.0527 11.7361 12.9832 11.6432C12.9136 11.5504 12.8239 11.4746 12.7208 11.4216C12.6176 11.3685 12.5038 11.3396 12.3878 11.3369H6.38031ZM4.88031 8.33692C4.88031 9.08692 5.55156 9.08692 6.38031 9.08692C7.20906 9.08692 7.88031 9.08692 7.88031 8.33692C7.88031 7.93909 7.72228 7.55756 7.44097 7.27626C7.15967 6.99495 6.77814 6.83692 6.38031 6.83692C5.98249 6.83692 5.60096 6.99495 5.31965 7.27626C5.03835 7.55756 4.88031 7.93909 4.88031 8.33692ZM10.8803 8.33692C10.8803 9.08692 11.5516 9.08692 12.3803 9.08692C13.2091 9.08692 13.8803 9.08692 13.8803 8.33692C13.8803 7.93909 13.7223 7.55756 13.441 7.27626C13.1597 6.99495 12.7781 6.83692 12.3803 6.83692C11.9825 6.83692 11.601 6.99495 11.3197 7.27626C11.0384 7.55756 10.8803 7.93909 10.8803 8.33692Z" fill="#374957"/>
</g>
<defs>
<clipPath id="clip0_20_339">
<rect width="18" height="18" fill="white" transform="translate(0.38031 0.836914)"/>
</clipPath>
</defs>
</svg>
