<svg width="19" height="19" viewBox="0 0 19 19" fill="none" xmlns="http://www.w3.org/2000/svg">
<g clip-path="url(#clip0_20_344)">
<path d="M8.98731 12.0874C8.7884 12.0874 8.59763 12.1664 8.45698 12.3071C8.31633 12.4477 8.23731 12.6385 8.23731 12.8374V15.0874C8.23731 15.6841 8.00026 16.2564 7.5783 16.6784C7.15634 17.1003 6.58405 17.3374 5.98731 17.3374H4.13031C3.53357 17.3374 2.96128 17.1003 2.53932 16.6784C2.11736 16.2564 1.88031 15.6841 1.88031 15.0874V4.5874C1.88031 3.99067 2.11736 3.41837 2.53932 2.99641C2.96128 2.57446 3.53357 2.3374 4.13031 2.3374H5.98731C6.58405 2.3374 7.15634 2.57446 7.5783 2.99641C8.00026 3.41837 8.23731 3.99067 8.23731 4.5874V6.8374C8.23731 7.03631 8.31633 7.22708 8.45698 7.36773C8.59763 7.50838 8.7884 7.5874 8.98731 7.5874C9.18622 7.5874 9.37699 7.50838 9.51764 7.36773C9.65829 7.22708 9.73731 7.03631 9.73731 6.8374V4.5874C9.73612 3.59321 9.34065 2.64007 8.63765 1.93707C7.93464 1.23406 6.98151 0.838593 5.98731 0.837402H4.13031C3.13611 0.838593 2.18298 1.23406 1.47998 1.93707C0.776972 2.64007 0.381501 3.59321 0.38031 4.5874L0.38031 15.0874C0.381501 16.0816 0.776972 17.0347 1.47998 17.7377C2.18298 18.4407 3.13611 18.8362 4.13031 18.8374H5.98731C6.98151 18.8362 7.93464 18.4407 8.63765 17.7377C9.34065 17.0347 9.73612 16.0816 9.73731 15.0874V12.8374C9.73731 12.6385 9.65829 12.4477 9.51764 12.3071C9.37699 12.1664 9.18622 12.0874 8.98731 12.0874Z" fill="#374957"/>
<path d="M17.5307 8.24684L14.0912 4.80734C14.022 4.7357 13.9392 4.67857 13.8477 4.63926C13.7562 4.59995 13.6578 4.57926 13.5582 4.5784C13.4586 4.57753 13.3599 4.59651 13.2677 4.63422C13.1755 4.67193 13.0918 4.72762 13.0214 4.79804C12.951 4.86846 12.8953 4.9522 12.8576 5.04437C12.8199 5.13654 12.8009 5.2353 12.8017 5.33489C12.8026 5.43447 12.8233 5.53289 12.8626 5.62439C12.9019 5.71589 12.9591 5.79865 13.0307 5.86784L16.2272 9.06509L4.88043 9.08759C4.68152 9.08759 4.49075 9.1666 4.3501 9.30726C4.20945 9.44791 4.13043 9.63867 4.13043 9.83759C4.13043 10.0365 4.20945 10.2273 4.3501 10.3679C4.49075 10.5086 4.68152 10.5876 4.88043 10.5876L16.2714 10.5643L13.0292 13.8073C12.9576 13.8765 12.9004 13.9593 12.8611 14.0508C12.8218 14.1423 12.8011 14.2407 12.8002 14.3403C12.7994 14.4399 12.8184 14.5386 12.8561 14.6308C12.8938 14.723 12.9495 14.8067 13.0199 14.8771C13.0903 14.9476 13.174 15.0032 13.2662 15.041C13.3584 15.0787 13.4571 15.0976 13.5567 15.0968C13.6563 15.0959 13.7547 15.0752 13.8462 15.0359C13.9377 14.9966 14.0205 14.9395 14.0897 14.8678L17.5292 11.4283C17.9512 11.0066 18.1884 10.4345 18.1887 9.8379C18.189 9.24128 17.9523 8.66897 17.5307 8.24684Z" fill="#374957"/>
</g>
<defs>
<clipPath id="clip0_20_344">
<rect width="18" height="18" fill="white" transform="translate(0.38031 0.837402)"/>
</clipPath>
</defs>
</svg>
