<svg width="21" height="13" viewBox="0 0 21 13" fill="none" xmlns="http://www.w3.org/2000/svg">
<g opacity="0.5">
<path d="M2.00888 7.58176C1.91613 7.83499 1.72829 8.04207 1.48528 8.15901C1.24227 8.27594 0.963245 8.29351 0.707486 8.20799C0.451727 8.12247 0.239394 7.94059 0.115603 7.701C-0.00818831 7.46141 -0.0336808 7.183 0.044542 6.92491C0.0238211 6.98707 0.044542 6.92284 0.044542 6.92284C0.0814894 6.80879 0.124371 6.69674 0.173011 6.58716C0.255895 6.39031 0.378148 6.11887 0.545987 5.7977C0.885809 5.15535 1.42041 4.29958 2.20366 3.44381C3.79295 1.71362 6.38927 0 10.3511 0C14.315 0 16.9113 1.71362 18.4965 3.44381C19.3427 4.37191 20.029 5.43415 20.5271 6.58716C20.5686 6.68455 20.5996 6.76329 20.6204 6.82131C20.6286 6.83788 20.6494 6.94563 20.6701 7.04924C20.6887 7.14455 20.7053 7.23572 20.7115 7.2523C20.7115 7.2523 20.8856 7.94231 20.0029 8.23447C19.7429 8.32128 19.4592 8.30156 19.2137 8.17961C18.9683 8.05767 18.7812 7.84344 18.6933 7.58383V7.57762L18.6788 7.54447C18.5747 7.27828 18.4557 7.01817 18.3224 6.76536C17.9546 6.07033 17.5 5.42488 16.9693 4.84454C15.7054 3.4666 13.6395 2.07209 10.3511 2.07209C7.0627 2.07209 4.99683 3.4666 3.73286 4.84454C3.04853 5.59478 2.49202 6.45228 2.08555 7.38284C2.0638 7.43632 2.04307 7.4902 2.02338 7.54447L2.00888 7.58176Z" fill="black"/>
<path d="M6.20728 8.28834C6.20728 7.18923 6.64389 6.13515 7.42108 5.35796C8.19826 4.58078 9.25234 4.14417 10.3514 4.14417C11.4506 4.14417 12.5046 4.58078 13.2818 5.35796C14.059 6.13515 14.4956 7.18923 14.4956 8.28834C14.4956 9.38744 14.059 10.4415 13.2818 11.2187C12.5046 11.9959 11.4506 12.4325 10.3514 12.4325C9.25234 12.4325 8.19826 11.9959 7.42108 11.2187C6.64389 10.4415 6.20728 9.38744 6.20728 8.28834Z" fill="black"/>
</g>
</svg>
