<svg width="26" height="24" viewBox="0 0 26 24" fill="none" xmlns="http://www.w3.org/2000/svg">
<path d="M26 11.9986C26.0019 13.2125 25.7701 14.4147 25.3181 15.5358C24.866 16.6569 24.2027 17.6746 23.3664 18.5301C23.199 18.6999 22.9737 18.7952 22.7388 18.7956C22.5007 18.7945 22.2721 18.6995 22.1 18.5301C21.9323 18.3571 21.8382 18.1226 21.8382 17.8781C21.8382 17.6337 21.9323 17.3992 22.1 17.2262C22.7675 16.5402 23.2971 15.7253 23.6585 14.8283C24.0198 13.9313 24.2058 12.9697 24.2058 11.9986C24.2058 11.0275 24.0198 10.0659 23.6585 9.16893C23.2971 8.27193 22.7675 7.45711 22.1 6.77111C21.9455 6.5955 21.8624 6.36542 21.8681 6.12852C21.8738 5.89161 21.9677 5.66602 22.1304 5.49845C22.2932 5.33088 22.5122 5.23417 22.7423 5.22834C22.9724 5.2225 23.1958 5.308 23.3664 5.46712C24.2027 6.32263 24.866 7.34034 25.3181 8.46143C25.7701 9.58252 26.0019 10.7848 26 11.9986ZM16.1379 0.920443V23.0768C16.1381 23.2501 16.0908 23.4199 16.0016 23.5668C15.9125 23.7138 15.7849 23.8319 15.6336 23.9077C15.5107 23.9669 15.377 23.9983 15.2414 24C15.0424 23.9984 14.8495 23.9294 14.6922 23.8038L6.86982 17.5377H1.7931C1.31754 17.5377 0.861459 17.3432 0.525187 16.9969C0.188916 16.6507 0 16.181 0 15.6914V8.3059C0 7.81622 0.188916 7.34659 0.525187 7.00032C0.861459 6.65406 1.31754 6.45954 1.7931 6.45954H6.86982L14.6922 0.193437C14.8246 0.0878132 14.9831 0.0224804 15.1497 0.00484219C15.3163 -0.012796 15.4843 0.0179655 15.6348 0.0936411C15.7853 0.169317 15.9122 0.286881 16.0011 0.433012C16.09 0.579143 16.1374 0.747998 16.1379 0.920443ZM1.7931 15.6914H6.27586V8.3059H1.7931V15.6914ZM14.3448 2.81297L8.06896 7.83277V16.1645L14.3448 21.1843V2.81297ZM18.9284 8.73287C18.7608 8.90594 18.6666 9.14041 18.6666 9.38487C18.6666 9.62933 18.7608 9.8638 18.9284 10.0369C19.1805 10.2934 19.3807 10.5989 19.5173 10.9356C19.6539 11.2724 19.7242 11.6337 19.7242 11.9986C19.7242 12.3636 19.6539 12.7249 19.5173 13.0616C19.3807 13.3984 19.1805 13.7039 18.9284 13.9604C18.7608 14.1335 18.6666 14.3679 18.6666 14.6124C18.6666 14.8568 18.7608 15.0913 18.9284 15.2644C19.1005 15.4338 19.3292 15.5288 19.5672 15.5298C19.8049 15.5265 20.0327 15.4318 20.206 15.2644C21.045 14.3971 21.5161 13.2228 21.5161 11.9986C21.5161 10.7745 21.045 9.60017 20.206 8.73287C20.036 8.55952 19.8065 8.46227 19.5672 8.46227C19.328 8.46227 19.0984 8.55952 18.9284 8.73287Z" fill="black"/>
</svg>
