<svg width="19" height="21" viewBox="0 0 19 21" fill="none" xmlns="http://www.w3.org/2000/svg">
<path fill-rule="evenodd" clip-rule="evenodd" d="M9.59852 0.424805C10.2668 0.424805 10.9164 0.70478 11.3822 1.1914C11.847 1.68088 12.1037 2.35225 12.0841 3.03314C12.086 3.18646 12.1354 3.36359 12.225 3.51881C12.3734 3.77593 12.6077 3.95687 12.8858 4.03115C13.164 4.10162 13.4552 4.06353 13.7025 3.91402C14.8973 3.21789 16.4177 3.63499 17.1 4.84441L17.6815 5.87194C17.6964 5.89955 17.7095 5.92622 17.7207 5.95383C18.3386 7.14515 17.926 8.64502 16.778 9.32972C16.6109 9.42781 16.4756 9.56494 16.3823 9.73064C16.2376 9.9868 16.1974 10.2915 16.2702 10.5715C16.3449 10.8572 16.5232 11.0943 16.7743 11.241C17.3408 11.5733 17.7636 12.1333 17.9326 12.7799C18.1015 13.4255 18.0091 14.1264 17.6796 14.7045L17.0599 15.7577C16.3776 16.9538 14.8571 17.368 13.6745 16.671C13.5168 16.5786 13.3348 16.5281 13.1537 16.5234H13.1481C12.8784 16.5234 12.6012 16.6405 12.3996 16.8452C12.1952 17.0538 12.0832 17.3319 12.085 17.6271C12.0785 19.026 10.9631 20.1573 9.59852 20.1573H8.42901C7.05789 20.1573 5.94251 19.0203 5.94251 17.6214C5.94065 17.449 5.89211 17.27 5.80158 17.1147C5.65504 16.8538 5.41796 16.6672 5.14448 16.5929C4.87287 16.5186 4.57513 16.5595 4.33058 16.7043C3.74443 17.0376 3.05467 17.1185 2.42371 16.9376C1.79369 16.7557 1.24953 16.3139 0.93032 15.7282L0.346964 14.7026C-0.335329 13.4951 0.070687 11.9476 1.25233 11.2505C1.58741 11.0534 1.79555 10.6858 1.79555 10.2915C1.79555 9.89729 1.58741 9.52875 1.25233 9.33162C0.0697537 8.63074 -0.335329 7.07945 0.346031 5.87194L0.978856 4.81203C1.65181 3.61785 3.17321 3.19694 4.35952 3.89211C4.52099 3.9902 4.69647 4.03972 4.87474 4.04162C5.45623 4.04162 5.94251 3.55214 5.95185 2.95029C5.94811 2.28654 6.20479 1.64946 6.67241 1.16855C7.14189 0.688591 7.76538 0.424805 8.42901 0.424805H9.59852ZM9.59852 1.85325H8.42901C8.13967 1.85325 7.86899 1.96848 7.66458 2.17608C7.46111 2.38463 7.35003 2.66175 7.3519 2.95696C7.3323 4.34921 6.21692 5.47007 4.86634 5.47007C4.43326 5.4653 4.01604 5.34627 3.65389 5.12534C3.14521 4.83012 2.48065 5.01201 2.1829 5.54054L1.55101 6.60044C1.26167 7.11278 1.43901 7.78986 1.95423 8.09555C2.71866 8.54693 3.19561 9.38876 3.19561 10.2915C3.19561 11.1943 2.71866 12.0352 1.95236 12.4875C1.43994 12.7904 1.2626 13.4636 1.55941 13.9874L2.14837 15.0235C2.29397 15.2911 2.53198 15.4844 2.80733 15.5634C3.08174 15.6415 3.38415 15.6082 3.63616 15.4654C4.00671 15.2435 4.43792 15.1282 4.87101 15.1282C5.08475 15.1282 5.29849 15.1559 5.50756 15.213C6.13852 15.3863 6.68641 15.8168 7.01122 16.3948C7.22216 16.7576 7.33883 17.1814 7.34257 17.6137C7.34257 18.2327 7.82979 18.7289 8.42901 18.7289H9.59852C10.1949 18.7289 10.6822 18.2356 10.685 17.6271C10.6812 16.9548 10.9388 16.3158 11.4102 15.8349C11.875 15.3606 12.5246 15.0759 13.1743 15.0949C13.5999 15.1054 14.0096 15.2225 14.3708 15.432C14.8907 15.7358 15.5544 15.5549 15.8549 15.0311L16.4747 13.9769C16.6128 13.7341 16.6529 13.4294 16.5792 13.1484C16.5064 12.8675 16.3234 12.6237 16.077 12.4799C15.5002 12.1409 15.0886 11.5943 14.9178 10.9391C14.7489 10.2963 14.8413 9.59446 15.1707 9.01641C15.3854 8.6355 15.7 8.31457 16.077 8.09364C16.5829 7.79176 16.7603 7.11659 16.4663 6.59092C16.4541 6.56997 16.4429 6.54806 16.4336 6.52521L15.8866 5.55768C15.5889 5.02915 14.9262 4.84727 14.4063 5.14914C13.8444 5.48816 13.1761 5.58529 12.534 5.41293C11.8927 5.24342 11.3551 4.82917 11.02 4.24446C10.8054 3.87878 10.6887 3.4531 10.685 3.01981C10.6934 2.69412 10.5814 2.40177 10.3779 2.1875C10.1753 1.97419 9.89067 1.85325 9.59852 1.85325ZM9.01787 7.06621C10.7605 7.06621 12.1783 8.5137 12.1783 10.2916C12.1783 12.0696 10.7605 13.5152 9.01787 13.5152C7.27527 13.5152 5.85748 12.0696 5.85748 10.2916C5.85748 8.5137 7.27527 7.06621 9.01787 7.06621ZM9.01787 8.49465C8.04717 8.49465 7.25754 9.30125 7.25754 10.2916C7.25754 11.282 8.04717 12.0867 9.01787 12.0867C9.98858 12.0867 10.7782 11.282 10.7782 10.2916C10.7782 9.30125 9.98858 8.49465 9.01787 8.49465Z" fill="black"/>
</svg>
