<svg width="20" height="21" viewBox="0 0 20 21" fill="none" xmlns="http://www.w3.org/2000/svg">
<g clip-path="url(#clip0_20_329)">
<path d="M13.8388 12.5031C13.8388 12.7241 13.7554 12.9361 13.6069 13.0924C13.4584 13.2486 13.2571 13.3364 13.0471 13.3364H6.71378C6.50381 13.3364 6.30245 13.2486 6.15398 13.0924C6.00552 12.9361 5.92211 12.7241 5.92211 12.5031C5.92211 12.2821 6.00552 12.0701 6.15398 11.9139C6.30245 11.7576 6.50381 11.6698 6.71378 11.6698H13.0471C13.2571 11.6698 13.4584 11.7576 13.6069 11.9139C13.7554 12.0701 13.8388 12.2821 13.8388 12.5031ZM10.6721 15.0031H6.71378C6.50381 15.0031 6.30245 15.0909 6.15398 15.2472C6.00552 15.4035 5.92211 15.6154 5.92211 15.8364C5.92211 16.0575 6.00552 16.2694 6.15398 16.4257C6.30245 16.582 6.50381 16.6698 6.71378 16.6698H10.6721C10.8821 16.6698 11.0834 16.582 11.2319 16.4257C11.3804 16.2694 11.4638 16.0575 11.4638 15.8364C11.4638 15.6154 11.3804 15.4035 11.2319 15.2472C11.0834 15.0909 10.8821 15.0031 10.6721 15.0031ZM17.7971 9.57394V16.6698C17.7959 17.7744 17.3784 18.8335 16.6364 19.6146C15.8943 20.3957 14.8882 20.8351 13.8388 20.8364H5.92211C4.87268 20.8351 3.86659 20.3957 3.12453 19.6146C2.38247 18.8335 1.96503 17.7744 1.96378 16.6698V5.00311C1.96503 3.89845 2.38247 2.83941 3.12453 2.05829C3.86659 1.27718 4.87268 0.837768 5.92211 0.836445H9.49648C10.2245 0.834473 10.9457 0.984435 11.6183 1.27766C12.291 1.57089 12.9017 2.00156 13.4152 2.54478L16.1734 5.44978C16.6898 5.98998 17.0991 6.63266 17.3779 7.34059C17.6566 8.04852 17.7991 8.80763 17.7971 9.57394V9.57394ZM12.2958 3.72311C12.0467 3.46908 11.7669 3.25055 11.4638 3.07311V6.66978C11.4638 6.89079 11.5472 7.10275 11.6956 7.25903C11.8441 7.41531 12.0455 7.50311 12.2554 7.50311H15.6723C15.5036 7.1841 15.2957 6.8899 15.054 6.62811L12.2958 3.72311ZM16.2138 9.57394C16.2138 9.43644 16.1884 9.30478 16.1766 9.16978H12.2554C11.6256 9.16978 11.0215 8.90639 10.5761 8.43755C10.1307 7.9687 9.88044 7.33282 9.88044 6.66978V2.54228C9.75219 2.52978 9.62632 2.50311 9.49648 2.50311H5.92211C5.29222 2.50311 4.68813 2.7665 4.24273 3.23534C3.79733 3.70419 3.54711 4.34007 3.54711 5.00311V16.6698C3.54711 17.3328 3.79733 17.9687 4.24273 18.4375C4.68813 18.9064 5.29222 19.1698 5.92211 19.1698H13.8388C14.4687 19.1698 15.0728 18.9064 15.5182 18.4375C15.9636 17.9687 16.2138 17.3328 16.2138 16.6698V9.57394Z" fill="#374957"/>
</g>
<defs>
<clipPath id="clip0_20_329">
<rect width="19" height="20" fill="white" transform="translate(0.38031 0.836426)"/>
</clipPath>
</defs>
</svg>
